<svg width="250.00000000000003" height="250.00000000000003" xmlns="http://www.w3.org/2000/svg">

 <g>
  <title>background</title>
  <rect fill="none" id="canvas_background" height="252" width="252" y="-1" x="-1"/>
 </g>
 <g>
  <title>Layer 1</title>
  <circle id="svg_2" stroke-width="10" stroke-miterlimit="10" stroke-linejoin="round" stroke-linecap="round" stroke="#ffffff" r="57" fill="none" cy="124.999996" cx="125"/>
  <path id="svg_3" stroke-width="10" stroke-miterlimit="10" stroke-linejoin="round" stroke-linecap="round" stroke="#ffffff" fill="none" d="m233.8,102.550001l-24.3,0c-4.3,-10.3 -4.6,-11.1 -8.8,-21.4l17.2,-17.2l-31.9,-31.8l-17.2,17.2c-10.3,-4.3 -11.1,-4.6 -21.4,-8.8l0,-24.3l-45,0l0,24.3c-10.3,4.3 -11.1,4.6 -21.4,8.8l-17,-17.2l-31.9,31.9l17.2,17.2c-4.3,10.3 -4.6,11.1 -8.8,21.4l-24.3,0l0,45l24.3,0c4.3,10.3 4.6,11.1 8.8,21.4l-17.2,17l31.8,31.8l17.2,-17.2c10.3,4.3 11.1,4.6 21.4,8.8l0,24.3l45,0l0,-24.3c10.3,-4.3 11.1,-4.6 21.4,-8.8l17.2,17.2l31.8,-31.8l-17.2,-17.2c4.3,-10.3 4.6,-11.1 8.8,-21.4l24.3,0l0,-44.9z"/>
 </g>
</svg>